<?xml version="1.0" encoding="UTF-8" standalone="no"?>
<!-- Created with Inkscape (http://www.inkscape.org/) -->
<svg
   xmlns:dc="http://purl.org/dc/elements/1.1/"
   xmlns:cc="http://web.resource.org/cc/"
   xmlns:rdf="http://www.w3.org/1999/02/22-rdf-syntax-ns#"
   xmlns:svg="http://www.w3.org/2000/svg"
   xmlns="http://www.w3.org/2000/svg"
   xmlns:sodipodi="http://inkscape.sourceforge.net/DTD/sodipodi-0.dtd"
   xmlns:inkscape="http://www.inkscape.org/namespaces/inkscape"
   width="612.00000px"
   height="205.00000pt"
   id="svg2"
   inkscape:label="Pozadí"
   sodipodi:version="0.32"
   inkscape:version="0.42"
   sodipodi:docbase="C:\Documents and Settings\petrk"
   sodipodi:docname="YHWH.svg">
  <defs
     id="defs3" />
  <sodipodi:namedview
     id="base"
     pagecolor="#ffffff"
     bordercolor="#666666"
     borderopacity="1.0"
     inkscape:pageopacity="0.0"
     inkscape:pageshadow="2"
     inkscape:zoom="0.98994949"
     inkscape:cx="327.41334"
     inkscape:cy="52.218429"
     inkscape:document-units="px"
     inkscape:current-layer="layer1"
     inkscape:window-width="1280"
     inkscape:window-height="1003"
     inkscape:window-x="1276"
     inkscape:window-y="-4" />
  <metadata
     id="metadata6">
    <rdf:RDF>
      <cc:Work
         rdf:about="">
        <dc:format>image/svg+xml</dc:format>
        <dc:type
           rdf:resource="http://purl.org/dc/dcmitype/StillImage" />
        <dc:title>YHWH</dc:title>
        <dc:creator>
          <cc:Agent>
            <dc:title>Petr Kadlec</dc:title>
          </cc:Agent>
        </dc:creator>
        <dc:rights>
          <cc:Agent>
            <dc:title></dc:title>
          </cc:Agent>
        </dc:rights>
        <cc:license
           rdf:resource="http://web.resource.org/cc/PublicDomain" />
        <dc:description>Hebrew letters yod, heh, vav, heh (YHWH), the Tetragrammaton</dc:description>
      </cc:Work>
      <cc:License
         rdf:about="http://web.resource.org/cc/PublicDomain">
        <cc:permits
           rdf:resource="http://web.resource.org/cc/Reproduction" />
        <cc:permits
           rdf:resource="http://web.resource.org/cc/Distribution" />
        <cc:permits
           rdf:resource="http://web.resource.org/cc/DerivativeWorks" />
      </cc:License>
    </rdf:RDF>
  </metadata>
  <g
     inkscape:label="Vrstva 1"
     inkscape:groupmode="layer"
     id="layer1">
    <path
       style="font-size:72.000000px;font-style:normal;font-variant:normal;font-weight:normal;font-stretch:normal;text-align:center;line-height:125.00000%;writing-mode:lr-tb;text-anchor:middle;fill:#000000;fill-opacity:1.0000000;stroke:none;stroke-width:1.0000000px;stroke-linecap:butt;stroke-linejoin:miter;stroke-opacity:1.0000000;font-family:Times New Roman"
       d="M 570.91915,142.34584 L 565.16875,135.77391 C 579.68167,124.95774 586.93817,109.89704 586.93822,90.591866 C 586.93817,76.763591 576.73798,69.438666 556.33772,68.617028 C 533.60975,67.795684 522.24582,58.143177 522.24582,39.659409 C 522.24582,30.075551 525.46331,19.327729 531.89837,7.4158878 L 537.44339,7.4158878 C 538.81252,16.726356 545.04216,21.860697 556.13232,22.818854 L 574.82125,24.051106 C 593.16778,25.420462 602.34109,38.085125 602.34119,62.045093 L 602.34119,77.448006 C 602.34109,109.89704 591.86712,131.52967 570.91915,142.34584 M 455.70505,245.64834 L 452.41911,241.33551 C 455.97875,235.31124 457.75860,228.12319 457.75877,219.77140 C 457.75860,211.69342 457.21094,199.57642 456.11579,183.42040 C 455.02028,167.12757 454.47264,154.94210 454.47280,146.86405 C 454.47264,113.86759 462.48221,87.853737 478.50143,68.822363 L 357.53684,68.822363 C 336.86263,68.822539 326.52551,60.196891 326.52559,42.945373 C 326.52551,29.527889 330.70146,18.300873 339.05330,9.2642642 L 344.59838,9.2642642 C 346.78898,18.848533 353.22397,23.640551 363.90339,23.640376 L 464.12530,23.640376 C 472.75084,23.640551 479.32276,25.078197 483.84109,27.953197 C 488.35914,30.828607 490.61824,37.537464 490.61843,48.079716 L 490.61843,58.143004 C 490.61824,63.208996 488.08528,69.849398 483.01962,78.064133 C 478.09050,86.142290 475.62600,98.738487 475.62618,115.85273 C 475.62600,125.71074 477.20059,140.49758 480.34979,160.21325 C 483.49866,179.92910 485.07317,194.71593 485.07334,204.57377 C 485.07317,228.94471 475.28374,242.63623 455.70505,245.64834 M 331.45453,245.85373 L 328.57929,241.33551 C 332.13907,237.63881 333.91898,232.64141 333.91898,226.34334 C 333.91898,222.09898 333.71358,215.66392 333.30284,207.03828 C 332.89211,198.41264 332.68673,191.97763 332.68673,187.73322 C 332.68673,159.11805 342.95534,144.81040 363.49266,144.81028 C 366.23089,144.81040 368.55847,145.35806 370.47532,146.45327 L 370.47532,151.99834 C 363.90334,156.24281 360.61736,165.21072 360.61741,178.90218 C 360.61736,183.42046 360.89122,190.12932 361.43894,199.02871 C 361.98655,207.92827 362.26035,214.56859 362.26040,218.94989 C 362.26035,235.65357 351.99172,244.62148 331.45453,245.85373 M 272.30716,244.41614 L 267.78894,242.97850 L 267.78894,101.06588 C 267.78883,91.208166 266.21431,83.951648 263.06534,79.296384 C 260.05318,74.504542 251.70134,71.013182 238.00987,68.822363 C 217.19876,65.399646 206.79321,54.994144 206.79321,37.605695 C 206.79321,25.009731 210.76376,14.946443 218.70482,7.4158878 L 224.24988,7.4158878 C 225.34521,15.904894 231.02715,21.039177 241.29584,22.818854 L 258.54718,25.488693 C 268.13116,26.994981 275.11381,30.691675 279.49517,36.578840 C 284.01332,42.466412 286.27237,54.172624 286.27247,71.697597 L 286.27247,218.94989 C 286.27237,231.13535 281.61729,239.62406 272.30716,244.41614 M 140.25245,245.64834 L 136.96649,241.33551 C 140.52614,235.31124 142.30599,228.12319 142.30617,219.77140 C 142.30599,211.69342 141.75833,199.57642 140.66318,183.42040 C 139.56768,167.12757 139.02002,154.94210 139.02020,146.86405 C 139.02002,113.86759 147.02960,87.853737 163.04881,68.822363 L 42.084236,68.822363 C 21.409999,68.822539 11.072908,60.196891 11.072967,42.945373 C 11.072908,29.527889 15.248858,18.300873 23.600700,9.2642642 L 29.145772,9.2642642 C 31.336357,18.848533 37.771356,23.640551 48.450771,23.640376 L 148.67270,23.640376 C 157.29823,23.640551 163.87015,25.078197 168.38849,27.953197 C 172.90653,30.828607 175.16564,37.537464 175.16581,48.079716 L 175.16581,58.143004 C 175.16564,63.208996 172.63267,69.849398 167.56702,78.064133 C 162.63790,86.142290 160.17340,98.738487 160.17358,115.85273 C 160.17340,125.71074 161.74797,140.49758 164.89718,160.21325 C 168.04604,179.92910 169.62056,194.71593 169.62074,204.57377 C 169.62056,228.94471 159.83114,242.63623 140.25245,245.64834 M 16.001914,245.85373 L 13.126680,241.33551 C 16.686446,237.63881 18.466358,232.64141 18.466358,226.34334 C 18.466358,222.09898 18.260963,215.66392 17.850232,207.03828 C 17.439501,198.41264 17.234107,191.97763 17.234107,187.73322 C 17.234107,159.11805 27.502732,144.81040 48.040039,144.81028 C 50.778287,144.81040 53.105857,145.35806 55.022700,146.45327 L 55.022700,151.99834 C 48.450713,156.24281 45.164748,165.21072 45.164805,178.90218 C 45.164748,183.42046 45.438608,190.12932 45.986326,199.02871 C 46.533928,207.92827 46.807730,214.56859 46.807788,218.94989 C 46.807730,235.65357 36.539104,244.62148 16.001914,245.85373"
       id="text1305" />
  </g>
</svg>
